<svg width="400" height="120" viewBox="0 0 400 120" xmlns="http://www.w3.org/2000/svg">
  <style>
    .bg        { fill:#ffffff; stroke:#d0d7de; stroke-width:1; }
    .name      { font:600 13px -apple-system,BlinkMacSystemFont,'Segoe UI',sans-serif;
                 fill:#0969da; }
    .desc      { font:400 11px -apple-system,BlinkMacSystemFont,'Segoe UI',sans-serif;
                 fill:#57606a; }
    .meta      { font:400 11px -apple-system,BlinkMacSystemFont,'Segoe UI',sans-serif;
                 fill:#57606a; }
    .icon      { fill:#57606a; }
    .fork-bg   { fill:#f6f8fa; stroke:#d0d7de; stroke-width:1; }
    .fork-text { font:400 10px -apple-system,BlinkMacSystemFont,'Segoe UI',sans-serif;
                 fill:#57606a; }
    @media (prefers-color-scheme:dark) {
      .bg        { fill:#161b22; stroke:#30363d; }
      .name      { fill:#58a6ff; }
      .desc      { fill:#8b949e; }
      .meta      { fill:#8b949e; }
      .icon      { fill:#8b949e; }
      .fork-bg   { fill:#21262d; stroke:#30363d; }
      .fork-text { fill:#8b949e; }
    }
  </style>
<rect x="0" y="0" width="400" height="120" rx="8" class="bg"/>
<path transform="translate(16,16) scale(0.9)" d="M2 2.5A2.5 2.5 0 014.5 0h8.75a.75.75 0 01.75.75v12.5a.75.75 0 01-.75.75h-2.5a.75.75 0 010-1.5h1.75v-2h-8a1 1 0 00-.714 1.7.75.75 0 01-1.072 1.05A2.495 2.495 0 012 11.5v-9zm10.5-1V9h-8c-.356 0-.694.074-1 .208V2.5a1 1 0 011-1h8z" class="icon"/>
<text x="36" y="29" class="name">cw_lcwo_pcw_interface</text>
<text x="16" y="48" class="desc">CW interface for using it with Learn CW online</text>
<text x="16" y="64" class="desc">and PCWFistCheck</text>
<circle cx="21" cy="99" r="5" fill="#f34b7d"/>
<text x="30" y="102" class="meta">C++</text>
</svg>