<svg width="812" height="56" viewBox="0 0 812 56" xmlns="http://www.w3.org/2000/svg" xmlns:xlink="http://www.w3.org/1999/xlink">
  <rect width="812" height="56" rx="8" fill="#0969da"/>
  <g transform="translate(10,8)" fill="white">
          <path d="M10 24 C5 24 2 20 2 16 C2 10 10 2 10 2 C10 2 18 10 18 16
                   C18 20 15 24 10 24Z"/>
          <circle cx="10" cy="15" r="4" fill="#0969da"/>
          <path d="M30 24 C25 24 22 20 22 16 C22 10 30 2 30 2 C30 2 38 10 38 16
                   C38 20 35 24 30 24Z"/>
          <circle cx="30" cy="15" r="4" fill="#0969da"/>
          <path d="M18 16 Q24 6 22 16" stroke="white" stroke-width="2"
                fill="none" stroke-dasharray="3,3"/>
        </g>
  <text x="62" y="36" font-family="-apple-system,BlinkMacSystemFont,'Segoe UI',sans-serif" font-size="19" font-weight="700" fill="white">Google Timeline — Exporters</text>
</svg>