<svg width="400" height="120" viewBox="0 0 400 120" xmlns="http://www.w3.org/2000/svg">
  <style>
    .bg        { fill:#ffffff; stroke:#d0d7de; stroke-width:1; }
    .name      { font:600 13px -apple-system,BlinkMacSystemFont,'Segoe UI',sans-serif;
                 fill:#0969da; }
    .desc      { font:400 11px -apple-system,BlinkMacSystemFont,'Segoe UI',sans-serif;
                 fill:#57606a; }
    .meta      { font:400 11px -apple-system,BlinkMacSystemFont,'Segoe UI',sans-serif;
                 fill:#57606a; }
    .icon      { fill:#57606a; }
    .fork-bg   { fill:#f6f8fa; stroke:#d0d7de; stroke-width:1; }
    .fork-text { font:400 10px -apple-system,BlinkMacSystemFont,'Segoe UI',sans-serif;
                 fill:#57606a; }
    @media (prefers-color-scheme:dark) {
      .bg        { fill:#161b22; stroke:#30363d; }
      .name      { fill:#58a6ff; }
      .desc      { fill:#8b949e; }
      .meta      { fill:#8b949e; }
      .icon      { fill:#8b949e; }
      .fork-bg   { fill:#21262d; stroke:#30363d; }
      .fork-text { fill:#8b949e; }
    }
  </style>
<rect x="0" y="0" width="400" height="120" rx="8" class="bg"/>
<path transform="translate(16,16) scale(0.9)" d="M5 3.25a.75.75 0 11-1.5 0 .75.75 0 011.5 0zm0 2.122a2.25 2.25 0 10-1.5 0v.878A2.25 2.25 0 005.75 8.5h1.5v2.128a2.251 2.251 0 101.5 0V8.5h1.5a2.25 2.25 0 002.25-2.25v-.878a2.25 2.25 0 10-1.5 0v.878a.75.75 0 01-.75.75h-4.5A.75.75 0 015 6.25v-.878z" class="icon"/>
<text x="36" y="29" class="name">meshcore_py</text>
<rect x="342" y="14" width="42" height="16" rx="8" class="fork-bg"/>
<text x="363" y="26" text-anchor="middle" class="fork-text">fork</text>
<text x="16" y="48" class="desc">Python bindings for meshcore</text>
</svg>