<svg width="400" height="120" viewBox="0 0 400 120" xmlns="http://www.w3.org/2000/svg">
<style>.bg{fill:#fff;stroke:#d0d7de;stroke-width:1}.nm{font:600 13px -apple-system,BlinkMacSystemFont,'Segoe UI',sans-serif;fill:#0969da}.dc{font:400 11px -apple-system,BlinkMacSystemFont,'Segoe UI',sans-serif;fill:#57606a}.mt{font:400 11px -apple-system,BlinkMacSystemFont,'Segoe UI',sans-serif;fill:#57606a}.ic{fill:#57606a}.fb{fill:#f6f8fa;stroke:#d0d7de;stroke-width:1}.ft{font:400 10px -apple-system,BlinkMacSystemFont,'Segoe UI',sans-serif;fill:#57606a}@media(prefers-color-scheme:dark){.bg{fill:#161b22;stroke:#30363d}.nm{fill:#58a6ff}.dc{fill:#8b949e}.mt{fill:#8b949e}.ic{fill:#8b949e}.fb{fill:#21262d;stroke:#30363d}.ft{fill:#8b949e}}</style>
<rect x="0" y="0" width="400" height="120" rx="8" class="bg"/>
<path transform="translate(16,16) scale(0.9)" d="M2 2.5A2.5 2.5 0 014.5 0h8.75a.75.75 0 01.75.75v12.5a.75.75 0 01-.75.75h-2.5a.75.75 0 010-1.5h1.75v-2h-8a1 1 0 00-.714 1.7.75.75 0 01-1.072 1.05A2.495 2.495 0 012 11.5v-9zm10.5-1V9h-8c-.356 0-.694.074-1 .208V2.5a1 1 0 011-1h8z" class="ic"/>
<text x="36" y="29" class="nm">meshcore-gui</text>
<text x="16" y="48" class="dc">Native desktop GUI for MeshCore mesh network</text>
<text x="16" y="64" class="dc">devices via BLE — no firmware changes required</text>
<circle cx="21" cy="99" r="5" fill="#3572A5"/>
<text x="30" y="102" class="mt">Python</text>
<path transform="translate(80,91) scale(0.8)" d="M8 .25a.75.75 0 01.673.418l1.882 3.815 4.21.612a.75.75 0 01.416 1.279l-3.046 2.97.719 4.192a.75.75 0 01-1.088.791L8 12.347l-3.766 1.98a.75.75 0 01-1.088-.79l.72-4.194L.873 6.374a.75.75 0 01.416-1.28l4.21-.611L7.327.668A.75.75 0 018 .25z" class="ic"/>
<text x="94" y="102" class="mt">13</text>
<path transform="translate(116,91) scale(0.8)" d="M5 3.25a.75.75 0 11-1.5 0 .75.75 0 011.5 0zm0 2.122a2.25 2.25 0 10-1.5 0v.878A2.25 2.25 0 005.75 8.5h1.5v2.128a2.251 2.251 0 101.5 0V8.5h1.5a2.25 2.25 0 002.25-2.25v-.878a2.25 2.25 0 10-1.5 0v.878a.75.75 0 01-.75.75h-4.5A.75.75 0 015 6.25v-.878z" class="ic"/>
<text x="130" y="102" class="mt">1</text>
</svg>