<svg width="400" height="120" viewBox="0 0 400 120" xmlns="http://www.w3.org/2000/svg">
<style>.bg{fill:#fff;stroke:#d0d7de;stroke-width:1}.nm{font:600 13px -apple-system,BlinkMacSystemFont,'Segoe UI',sans-serif;fill:#0969da}.dc,.mt{font:400 11px -apple-system,BlinkMacSystemFont,'Segoe UI',sans-serif;fill:#57606a}.ic{fill:#57606a}.fb{fill:#f6f8fa;stroke:#d0d7de;stroke-width:1}.ft{font:400 10px -apple-system,BlinkMacSystemFont,'Segoe UI',sans-serif;fill:#57606a}@media(prefers-color-scheme:dark){.bg{fill:#161b22;stroke:#30363d}.nm{fill:#58a6ff}.dc,.mt{fill:#8b949e}.ic{fill:#8b949e}.fb{fill:#21262d;stroke:#30363d}.ft{fill:#8b949e}}</style>
<rect x="0" y="0" width="400" height="120" rx="8" class="bg"/>
<path transform="translate(16,16) scale(0.9)" d="M5 3.25a.75.75 0 11-1.5 0 .75.75 0 011.5 0zm0 2.122a2.25 2.25 0 10-1.5 0v.878A2.25 2.25 0 005.75 8.5h1.5v2.128a2.251 2.251 0 101.5 0V8.5h1.5a2.25 2.25 0 002.25-2.25v-.878a2.25 2.25 0 10-1.5 0v.878a.75.75 0 01-.75.75h-4.5A.75.75 0 015 6.25v-.878z" class="ic"/>
<text x="36" y="29" class="nm">Timeline-GPX-Exporter</text>
<rect x="342" y="14" width="42" height="16" rx="8" class="fb"/>
<text x="363" y="26" text-anchor="middle" class="ft">fork</text>
<text x="16" y="48" class="dc">Convert Google timeline new JSON format to daily</text>
<text x="16" y="64" class="dc">GPX files</text>
<circle cx="21" cy="99" r="5" fill="#3572A5"/>
<text x="30" y="102" class="mt">Python</text>
</svg>