<svg width="400" height="120" viewBox="0 0 400 120" xmlns="http://www.w3.org/2000/svg">
<style>.bg{fill:#fff;stroke:#d0d7de;stroke-width:1}.nm{font:600 13px -apple-system,BlinkMacSystemFont,'Segoe UI',sans-serif;fill:#0969da}.dc,.mt{font:400 11px -apple-system,BlinkMacSystemFont,'Segoe UI',sans-serif;fill:#57606a}.ic{fill:#57606a}.fb{fill:#f6f8fa;stroke:#d0d7de;stroke-width:1}.ft{font:400 10px -apple-system,BlinkMacSystemFont,'Segoe UI',sans-serif;fill:#57606a}@media(prefers-color-scheme:dark){.bg{fill:#161b22;stroke:#30363d}.nm{fill:#58a6ff}.dc,.mt{fill:#8b949e}.ic{fill:#8b949e}.fb{fill:#21262d;stroke:#30363d}.ft{fill:#8b949e}}</style>
<rect x="0" y="0" width="400" height="120" rx="8" class="bg"/>
<path transform="translate(16,16) scale(0.9)" d="M2 2.5A2.5 2.5 0 014.5 0h8.75a.75.75 0 01.75.75v12.5a.75.75 0 01-.75.75h-2.5a.75.75 0 010-1.5h1.75v-2h-8a1 1 0 00-.714 1.7.75.75 0 01-1.072 1.05A2.495 2.495 0 012 11.5v-9zm10.5-1V9h-8c-.356 0-.694.074-1 .208V2.5a1 1 0 011-1h8z" class="ic"/>
<text x="36" y="29" class="nm">VBand_interface</text>
<text x="16" y="48" class="dc">VBand Interface for the Seeeduino XIAO</text>
<circle cx="21" cy="99" r="5" fill="#f34b7d"/>
<text x="30" y="102" class="mt">C++</text>
</svg>